General
Complete name                    :Shark Vs  Giant Octopus 2009 DVDRip Dual Audio [Hin-Eng] by imkhan -=[TDT]=-\Mega Shark Vs  Giant Octopus 2009 DVDRip Dual Audio [Hin-Eng] by imkhan -=[TDT]=-.mkv
Format                           : Matroska
File size                        : 480 MiB
Duration                         : 1h 21mn[end credit cut]
Overall bit rate                 : 823 Kbps
Movie name                       : Mega Shark Vs  Giant Octopus 2009 DVDRip Dual Audio [Hin-Eng] by imkhan -=[TDT]=-
Encoded date                     : UTC 2011-08-14 17:22:50
Writing application              : mkvmerge v4.7.0 ('Just Like You Imagined') built on Apr 21 2011 01:13:14
Writing library                  : libebml v1.2.0 + libmatroska v1.1.0

Video
ID                               : 1
Format                           : AVC
Format/Info                      : Advanced Video Codec
Format profile                   : [email="High@L4.0"]High@L4.0[/email]
Format settings, CABAC           : Yes
Format settings, ReFrames        : 3 frames
Muxing mode                      : Container [email="profile=Unknown@4.0"]profile=Unknown@4.0[/email]
Codec ID                         : V_MPEG4/ISO/AVC
Duration                         : 1h 21mn
Bit rate                         : 614 Kbps
Width                            : 828 pixels
Height                           : 438 pixels
Display aspect ratio             : 1.890
Frame rate                       : 25.000 fps
Original frame rate              : 23.976 fps
Resolution                       : 24 bits
Colorimetry                      : 4:2:0
Scan type                        : Progressive
Bits/(Pixel*Frame)               : 0.068
Stream size                      : 359 MiB (75%)
Title                            : imkhan
Writing library                  : x264 core 104 r1683 62997d6

Language                         : Hindi

Audio #1
ID                               : 2
Format                           : MPEG Audio
Format version                   : Version 1
Format profile                   : Layer 3
Codec ID                         : A_MPEG/L3
Codec ID/Hint                    : MP3
Duration                         : 1h 21mn
Bit rate mode                    : Constant
Bit rate                         : 96.0 Kbps
Channel(s)                       : 2 channels
Sampling rate                    : 44.1 KHz
Resolution                       : 16 bits
Stream size                      : 56.0 MiB (12%)
Title                            : imkhan
Language                         : Hindi

Audio #2
ID                               : 3
Format                           : MPEG Audio
Format version                   : Version 1
Format profile                   : Layer 3
Codec ID                         : A_MPEG/L3
Codec ID/Hint                    : MP3
Duration                         : 1h 21mn
Bit rate mode                    : Constant
Bit rate                         : 96.0 Kbps
Channel(s)                       : 2 channels
Sampling rate                    : 44.1 KHz
Resolution                       : 16 bits
Stream size                      : 56.0 MiB (12%)
Title                            : imkhan


screens: 
http://leetleech.org/images/00782311070579849794.jpg 
http://leetleech.org/images/95685938355918600352.jpg 
http://leetleech.org/images/82099919516349969863.jpg 
http://leetleech.org/images/04988788804478422378.jpg 
http://leetleech.org/images/27702899654533634012.jpg 
http://leetleech.org/images/39286123467069101467.jpg 
http://leetleech.org/images/85470359111274156111.jpg 
http://leetleech.org/images/05445963841524757368.jpg 
http://leetleech.org/images/94508544767357710773.jpg


 ~ Seed 4 others,Others would seed 4 u ~
         Be a Gentleman!!

    ______            ______   _______    
   (  __  \ |\     /|(  __  \ (  ____ \   
   | (  \  )| )   ( || (  \  )| (    \/   
   | |   ) || |   | || |   ) || (__       
   | |   | || |   | || |   | ||  __)      
   | |   ) || |   | || |   ) || (         
 _ | (__/  )| (___) || (__/  )| (____/\ _ 
(_)(______/ (_______)(______/ (_______/(_)


A simple THANKS goes a long way... :-)
Any comments would b appreciated.
n Please do rate it.


